<?xml version="1.0" encoding="UTF-8"?>
<!DOCTYPE svg PUBLIC "-//W3C//DTD SVG 1.1//EN" "http://www.w3.org/Graphics/SVG/1.1/DTD/svg11.dtd">
<svg xmlns="http://www.w3.org/2000/svg" xmlns:xlink="http://www.w3.org/1999/xlink" version="1.1" width="700px" height="700px" viewBox="-100 -100 700 700">
    <defs/>
    <g>
        <path d="M 10 500 L 10 10" fill="none" stroke="#5c5c5c" stroke-width="20" stroke-miterlimit="10" pointer-events="stroke"/>
        <path d="M 19 490 L 531 490" fill="none" stroke="#5c5c5c" stroke-width="20" stroke-miterlimit="10" pointer-events="stroke"/>
        <path d="M 430 317 Q 480 284 490 258 Q 500 232 500 190.5 Q 500 149 459.11 89.62 Q 418.21 30.24 358.53 21.62 Q 298.84 13 271.3 51.8 Q 243.75 90.6 229.32 92.32 Q 214.89 94.05 188.45 94.02 Q 162 94 118.5 113.5 Q 75 133 50.5 185.95 Q 26 238.9 40.43 296.67 Q 54.86 354.43 88.93 386.72 Q 123 419 183.5 416.5 Q 244 414 277.5 373 Q 311 332 345.5 336.5 Q 380 341 430 317" fill="none" stroke="#000000" stroke-width="5" stroke-miterlimit="10" pointer-events="stroke"/>
        <ellipse cx="361.32" cy="181.7" rx="68.55866077296197" ry="75.50326771653543" fill="transparent" stroke="#000000" stroke-width="7" transform="rotate(-504,361.32,181.7)" pointer-events="all"/>
        <ellipse cx="179.16" cy="256.26" rx="75.29450164293537" ry="84.53917322834646" fill="transparent" stroke="#000000" stroke-width="7" transform="rotate(-504,179.16,256.26)" pointer-events="all"/>
        <path d="M 404 285 Q 450 262 465 226.5 Q 480 191 448.93 130.85 Q 417.86 70.69 368.93 66.35 Q 320 62 296.56 93.36 Q 273.11 124.71 259.61 145.21 Q 246.11 165.71 215.56 145.36 Q 185 125 144 142 Q 103 159 88 184 Q 73 209 69 239.86 Q 65 270.72 80.5 306.36 Q 96 342 125.05 364.36 Q 154.11 386.71 203.05 372.86 Q 252 359 274.06 318.86 Q 296.11 278.71 326.1 290.05 Q 356.08 301.38 404 285" fill="none" stroke="#000000" stroke-width="5" stroke-miterlimit="10" pointer-events="stroke"/>
        <ellipse cx="361.97" cy="181.32" rx="33.45" ry="46.605" fill="transparent" stroke="#000000" stroke-width="7" transform="rotate(-504,361.97,181.32)" pointer-events="all"/>
        <ellipse cx="177.88" cy="248.73" rx="37.535" ry="46.945" fill="transparent" stroke="#000000" stroke-width="7" transform="rotate(-504,177.88,248.73)" pointer-events="all"/>
        <ellipse cx="177.93" cy="247.53" rx="12.46" ry="17.6" fill="transparent" stroke="#000000" stroke-width="7" transform="rotate(-504,177.93,247.53)" pointer-events="all"/>
        <ellipse cx="361.01" cy="178.68" rx="9.485" ry="16.09" fill="transparent" stroke="#000000" stroke-width="7" transform="rotate(-504,361.01,178.68)" pointer-events="all"/>
    </g>
</svg>
