<?xml version="1.0" encoding="UTF-8"?>
<!DOCTYPE svg PUBLIC "-//W3C//DTD SVG 1.1//EN" "http://www.w3.org/Graphics/SVG/1.1/DTD/svg11.dtd">
<svg xmlns="http://www.w3.org/2000/svg" xmlns:xlink="http://www.w3.org/1999/xlink" version="1.1" width="700px" height="700px" viewBox="-100 -100 700 700">
    <defs/>
    <g>
        <path d="M 12 502 L 12 12" fill="none" stroke="#5c5c5c" stroke-width="25" stroke-miterlimit="10" pointer-events="stroke"/>
        <path d="M 23 489 L 535 489" fill="none" stroke="#5c5c5c" stroke-width="25" stroke-miterlimit="10" pointer-events="stroke"/>
        <path d="M 28 278 Q 48 320 68 347.5 Q 88 375 108 347.5 Q 128 320 144.5 313.5 Q 161 307 172.5 326 Q 184 345 211 387.5 Q 238 430 263 405 Q 288 380 303 362.5 Q 318 345 333 377.5 Q 348 410 378 445 Q 408 480 438 440 Q 468 400 528 320" fill="none" stroke="#5c5c5c" stroke-width="15" stroke-miterlimit="10" pointer-events="stroke"/>
        <path d="M 59 205 L 87.38 246.73 Q 93 255 99.73 247.6 L 106.36 240.3 Q 113 233 118.3 241.48 L 142.7 280.52 Q 148 289 150.45 279.3 L 168.55 207.7 Q 171 198 176.87 206.1 L 186.13 218.9 Q 192 227 192 237 L 192 279 Q 192 289 201.72 286.64 L 215.28 283.36 Q 225 281 227.34 271.28 L 235.66 236.72 Q 238 227 233.89 217.88 L 205.11 154.12 Q 201 145 192.95 150.93 L 171.05 167.07 Q 163 173 153.18 174.87 L 109.82 183.13 Q 100 185 106.08 177.06 L 129.92 145.94 Q 136 138 126.41 135.15 L 81.59 121.85 Q 72 119 82 119 L 161 119 Q 171 119 162.39 113.92 L 101.61 78.08 Q 93 73 102.59 70.16 L 111.29 67.58 Q 120 65 127.58 58.48 L 155.42 34.52 Q 163 28 173 28 L 198 28 Q 208 28 208 38 L 208 98 Q 208 108 214.08 115.94 L 224.92 130.06 Q 231 138 222.68 132.45 L 186 108" fill="none" stroke="#000000" stroke-width="20" stroke-miterlimit="10" stroke-dasharray="20 80" transform="translate(2,3)" opacity="0.25"/>
        <path d="M 59 205 L 87.38 246.73 Q 93 255 99.73 247.6 L 106.36 240.3 Q 113 233 118.3 241.48 L 142.7 280.52 Q 148 289 150.45 279.3 L 168.55 207.7 Q 171 198 176.87 206.1 L 186.13 218.9 Q 192 227 192 237 L 192 279 Q 192 289 201.72 286.64 L 215.28 283.36 Q 225 281 227.34 271.28 L 235.66 236.72 Q 238 227 233.89 217.88 L 205.11 154.12 Q 201 145 192.95 150.93 L 171.05 167.07 Q 163 173 153.18 174.87 L 109.82 183.13 Q 100 185 106.08 177.06 L 129.92 145.94 Q 136 138 126.41 135.15 L 81.59 121.85 Q 72 119 82 119 L 161 119 Q 171 119 162.39 113.92 L 101.61 78.08 Q 93 73 102.59 70.16 L 111.29 67.58 Q 120 65 127.58 58.48 L 155.42 34.52 Q 163 28 173 28 L 198 28 Q 208 28 208 38 L 208 98 Q 208 108 214.08 115.94 L 224.92 130.06 Q 231 138 222.68 132.45 L 186 108" fill="none" stroke="#000000" stroke-width="20" stroke-miterlimit="10" stroke-dasharray="20 80" pointer-events="stroke"/>
        <path d="M 443 93 L 406.6 51.52 Q 400 44 390.07 42.78 L 360.93 39.22 Q 351 38 341.09 39.32 L 315.91 42.68 Q 306 44 307.81 53.84 L 313.19 83.16 Q 315 93 308.47 100.57 L 296.53 114.43 Q 290 122 291.78 131.84 L 313.22 250.16 Q 315 260 322.58 253.47 L 343.42 235.53 Q 351 229 346.92 219.87 L 334.08 191.13 Q 330 182 336.94 174.8 L 350.06 161.2 Q 357 154 363 162 L 372 174 Q 378 182 382.21 172.93 L 405.79 122.07 Q 410 113 402.18 106.77 L 358.82 72.23 Q 351 66 352.27 75.92 L 355.73 103.08 Q 357 113 347 113 L 330 113" fill="none" stroke="#000000" stroke-width="20" stroke-miterlimit="10" stroke-dasharray="20 40" transform="translate(2,3)" opacity="0.25"/>
        <path d="M 443 93 L 406.6 51.52 Q 400 44 390.07 42.78 L 360.93 39.22 Q 351 38 341.09 39.32 L 315.91 42.68 Q 306 44 307.81 53.84 L 313.19 83.16 Q 315 93 308.47 100.57 L 296.53 114.43 Q 290 122 291.78 131.84 L 313.22 250.16 Q 315 260 322.58 253.47 L 343.42 235.53 Q 351 229 346.92 219.87 L 334.08 191.13 Q 330 182 336.94 174.8 L 350.06 161.2 Q 357 154 363 162 L 372 174 Q 378 182 382.21 172.93 L 405.79 122.07 Q 410 113 402.18 106.77 L 358.82 72.23 Q 351 66 352.27 75.92 L 355.73 103.08 Q 357 113 347 113 L 330 113" fill="none" stroke="#999999" stroke-width="20" stroke-miterlimit="10" stroke-dasharray="20 40" pointer-events="stroke"/>
        <path d="M 390 252 L 430.19 260.04 Q 440 262 436.84 271.49 L 433.16 282.51 Q 430 292 420.3 289.57 L 399.7 284.43 Q 390 282 392.17 291.76 L 397.83 317.24 Q 400 327 409.92 328.24 L 430.08 330.76 Q 440 332 449.7 329.57 L 470.3 324.43 Q 480 322 474.86 313.43 L 455.14 280.57 Q 450 272 458.94 276.47 L 481.06 287.53 Q 490 292 486.49 282.64 L 463.51 221.36 Q 460 212 450 212 L 420 212 Q 410 212 415.55 220.32 L 430 242" fill="none" stroke="#000000" stroke-width="20" stroke-miterlimit="10" stroke-dasharray="20 20" transform="translate(2,3)" opacity="0.25"/>
        <path d="M 390 252 L 430.19 260.04 Q 440 262 436.84 271.49 L 433.16 282.51 Q 430 292 420.3 289.57 L 399.7 284.43 Q 390 282 392.17 291.76 L 397.83 317.24 Q 400 327 409.92 328.24 L 430.08 330.76 Q 440 332 449.7 329.57 L 470.3 324.43 Q 480 322 474.86 313.43 L 455.14 280.57 Q 450 272 458.94 276.47 L 481.06 287.53 Q 490 292 486.49 282.64 L 463.51 221.36 Q 460 212 450 212 L 420 212 Q 410 212 415.55 220.32 L 430 242" fill="none" stroke="#5c5c5c" stroke-width="20" stroke-miterlimit="10" stroke-dasharray="20 20" pointer-events="stroke"/>
    </g>
</svg>
